<?xml version="1.0" encoding="utf-8"?>
<!-- Generator: Adobe Illustrator 18.0.0, SVG Export Plug-In . SVG Version: 6.00 Build 0)  -->
<svg version="1.2" baseProfile="tiny" id="Warstwa_1"
	 xmlns="http://www.w3.org/2000/svg" xmlns:xlink="http://www.w3.org/1999/xlink" x="0px" y="0px" viewBox="0 0 43 60"
	 xml:space="preserve">
<g>
	<path fill="#010101" d="M32.7,14.7L32.7,14.7L32.7,14.7L30.3,11l-1-1.6h-1.8H15h-2l-1,1.8l-2.1,3.9l-2.1,3.7l-0.5,0.9v1V37v1.3
		l0.8,1l2.4,3.1l0.1,0.1l0.1,0.1l2.9,3.2v0.7v3.5v3.6H15v2.8V60h3.4h6.2h3.4v-3.6v-2.8h1.2v-3.6v-3.5v-0.7l2.7-3.1l0,0l0,0l2.7-3.2
		l0.9-1V37V20.4v-1L35,18.6L32.7,14.7z M24.6,49.4h-6.2h-1.3V47h8.7v2.4H24.6z M18.4,56.4v-2.8h6.2v2.8H18.4z M32,37l-2.7,3.2
		l-2.2,2.7h-1.3h-8.7h-1.4l-2.5-2.7L10.9,37V20.7l2.1-3.8l2.1-4h12.4l2.3,3.6l2.2,3.9V37z"/>
	<polygon fill="#010101" points="1.4,10.4 3.5,7.5 9.2,12.2 7.1,15 	"/>
	<polygon fill="#010101" points="33.2,11.8 38.9,7.1 41,10 35.3,14.6 	"/>
	<rect x="19.7" fill="#010101" width="3.4" height="7.3"/>
	<rect x="0" y="24.4" fill="#010101" width="5.6" height="3.6"/>
	<rect x="37.2" y="24.4" fill="#010101" width="5.8" height="3.6"/>
</g>
</svg>
