<?xml version="1.0" encoding="utf-8"?>
<!-- Generator: Adobe Illustrator 18.0.0, SVG Export Plug-In . SVG Version: 6.00 Build 0)  -->
<!DOCTYPE svg PUBLIC "-//W3C//DTD SVG 1.1//EN" "http://www.w3.org/Graphics/SVG/1.1/DTD/svg11.dtd">
<svg version="1.1" id="Warstwa_1" xmlns="http://www.w3.org/2000/svg" xmlns:xlink="http://www.w3.org/1999/xlink" x="0px" y="0px"
	 viewBox="0 0 60 49" enable-background="new 0 0 60 49" xml:space="preserve">
<g>
	<g>
		<path d="M11.1,7.4H7.4v3.7h3.7V7.4z M16.7,7.4H13v3.7h3.7V7.4z M22.3,7.4h-3.7v3.7h3.7V7.4z M14.8,22.2H7.4v3.7h7.4V22.2z
			 M14.8,29.6H7.4v3.7h7.4V29.6z M14.8,37H7.4v3.7h7.4V37z M37.1,22.2H26v11.1h11.1V22.2z M33.4,29.6h-3.7v-3.7h3.7V29.6z
			 M51.9,22.2H40.8v11.1h11.1V22.2z M48.2,29.6h-3.7v-3.7h3.7V29.6z M0-0.2v49h60v-49H0z M18.8,45h-15V18.6h15V45z M33.8,45H30v-3.8
			h3.8V45z M48.8,45H45v-3.8h3.7V45z M56.3,45h-3.8v-7.5H41.3V45h-3.8v-7.5H26.3V45h-3.8V18.6h33.8V45z M56.3,14.9H3.8V3.6h52.5
			V14.9z"/>
	</g>
</g>
</svg>
