<?xml version="1.0" encoding="utf-8"?>
<!-- Generator: Adobe Illustrator 18.0.0, SVG Export Plug-In . SVG Version: 6.00 Build 0)  -->
<svg version="1.2" baseProfile="tiny" id="Warstwa_1"
	 xmlns="http://www.w3.org/2000/svg" xmlns:xlink="http://www.w3.org/1999/xlink" x="0px" y="0px" viewBox="0 0 131 34"
	 xml:space="preserve">
<g>
	<path d="M10.2,33.1c0,0.2-0.1,0.4-0.2,0.6c-0.2,0.2-0.3,0.2-0.5,0.2H7.6c-1.4,0-2.7-0.2-3.4-0.5C3.5,33,3,32.5,2.7,31.8
		s-0.5-1.7-0.5-3v-6.3c0-1.1-0.2-2-0.5-2.7C1.4,19.2,0.8,18.6,0,18v-2.1c0.9-0.6,1.4-1.2,1.7-1.9c0.3-0.6,0.4-1.5,0.4-2.6V5
		c0-1.3,0.2-2.3,0.5-3c0.3-0.7,0.9-1.2,1.6-1.5C5,0.2,6.1,0,7.6,0h1.8c0.2,0,0.4,0.1,0.5,0.2c0.2,0.2,0.2,0.3,0.2,0.5v1.2
		c0,0.2-0.1,0.4-0.2,0.5C9.6,2.6,9.5,2.7,9.3,2.7H7.7c-1,0-1.7,0.2-2,0.4C5.4,3.4,5.2,4,5.2,4.9v6.4c0,1.3-0.2,2.3-0.6,3.2
		c-0.4,0.9-1,1.6-1.9,2.3c0.9,0.6,1.6,1.4,1.9,2.3C5.1,20,5.2,21,5.2,22.3v6.4c0,0.6,0,0.9,0.1,1.2c0.1,0.3,0.2,0.5,0.3,0.6
		c0.2,0.2,0.4,0.2,0.7,0.3C6.7,31,7.1,31,7.6,31h1.6c0.2,0,0.4,0.1,0.6,0.2c0.2,0.2,0.2,0.3,0.2,0.5v1.4H10.2z"/>
	<path d="M28.1,28.4c-2.3,0-3.9-0.2-5.4-0.6c-0.3-0.1-0.6-0.2-0.6-0.6v-2.8c0-0.4,0.2-0.6,0.5-0.6h0.1c1.2,0.1,4.3,0.3,5.5,0.3
		c2,0,2.6-0.6,2.6-2c0-0.8-0.4-1.3-1.9-2.2l-3.9-2.3c-2.7-1.6-3.4-3.4-3.4-5.5c0-3.2,1.8-5.7,7.3-5.7c2.1,0,5,0.3,6.1,0.6
		c0.2,0.1,0.4,0.2,0.4,0.5v2.9c0,0.2-0.1,0.5-0.5,0.5h-0.1c-0.8-0.1-4.1-0.3-6.1-0.3c-1.6,0-2.3,0.5-2.3,1.5c0,0.8,0.4,1.2,1.9,2
		l3.7,2c3,1.6,3.9,3.6,3.9,5.8C36,25.2,34,28.4,28.1,28.4"/>
	<path d="M52.4,12.2l-5.3,7.3l5.3,8c0.1,0.1,0.1,0.2,0.1,0.2c0,0.2-0.2,0.4-0.4,0.4h-4.3c-0.3,0-0.5-0.1-0.7-0.4L42.9,21v6.6
		c0,0.3-0.2,0.6-0.6,0.6h-3.5c-0.3,0-0.6-0.3-0.6-0.6v-21c0-0.3,0.3-0.6,0.6-0.6h3.5c0.3,0,0.6,0.2,0.6,0.6v12.1l4.3-6.6
		c0.2-0.3,0.5-0.4,0.7-0.4h4.1c0.2,0,0.4,0.2,0.4,0.3C52.6,12.1,52.5,12.1,52.4,12.2"/>
	<path d="M61.8,34c-2.5,0-4.4-0.4-5.5-0.8c-0.4-0.2-0.6-0.3-0.6-0.7v-1.9c0-0.3,0.2-0.5,0.6-0.5h0.1c1.3,0.1,4.1,0.3,5.5,0.3
		c2,0,2.4-0.5,2.4-2.1v-0.3c-0.5,0.1-1.8,0.2-2.4,0.2c-4.8,0-7.2-2.9-7.2-7.4v-8.5c0-0.3,0.2-0.6,0.6-0.6h3.5c0.3,0,0.6,0.2,0.6,0.6
		v8.6c0,2,0.6,3.6,2.6,3.6c0.7,0,1.7-0.1,2.4-0.2v-12c0-0.3,0.2-0.6,0.6-0.6h3.4c0.3,0,0.6,0.2,0.6,0.6v16
		C68.7,32.4,66.6,34,61.8,34"/>
	<path d="M86.3,11L86.3,11c-1.4-0.1-3.6-0.2-6-0.2c-2.3,0-3.8,1.1-3.8,4.9v3.6c0,4,1.8,4.9,3.2,4.9c0.8,0,1.5,0,2.3-0.1v-6.6
		c0-0.3,0.2-0.6,0.6-0.6h3.7c0.3,0,0.6,0.2,0.6,0.6v9.7c0,0.4-0.2,0.6-0.6,0.6c-1.5,0.3-3.5,0.6-6.4,0.6c-3.3,0-8.2-1.9-8.2-9.1
		v-3.6c0-7.4,4.6-9.2,8.7-9.2c2.9,0,4.9,0.4,6,0.6c0.3,0.1,0.5,0.2,0.5,0.4v3.1C86.7,10.9,86.5,11,86.3,11"/>
	<path d="M102.4,27.7c-1.6,0.4-3.9,0.7-6.1,0.7c-4.7,0-7.2-2.7-7.2-7.4v-2.3c0-4.7,2.6-7.4,7.2-7.4c2.2,0,4.4,0.3,6.1,0.7
		c0.8,0.2,0.9,0.4,0.9,0.8v13.8C103.2,27.3,103.2,27.5,102.4,27.7 M98.7,15.4c-0.6-0.1-1.4-0.2-2.3-0.2c-2,0-2.6,1.5-2.6,3.5V21
		c0,2,0.6,3.6,2.6,3.6c1,0,1.8-0.1,2.3-0.2V15.4z"/>
	<path d="M114.8,15.1h-3.9v8.6c0,1,0.5,1.2,1.7,1.2h2.2c0.4,0,0.6,0.2,0.6,0.5v2.2c0,0.3-0.2,0.5-0.6,0.6c-0.8,0.2-2.2,0.2-3.5,0.2
		c-3.2,0-5.1-1-5.1-4.8V9.1c0-0.3,0.2-0.5,0.6-0.6l3.5-0.6h0.1c0.2,0,0.5,0.3,0.5,0.6v3.1h3.9c0.3,0,0.6,0.2,0.6,0.6v2.3
		C115.4,14.8,115.1,15.1,114.8,15.1"/>
	<path d="M130.4,21.4h-9.2v0.1c0,1.6,0.7,3.2,3,3.2c1.8,0,4.3-0.2,5.5-0.2h0.1c0.3,0,0.6,0.2,0.6,0.5V27c0,0.5-0.1,0.6-0.6,0.8
		c-1.8,0.5-3.4,0.7-5.9,0.7c-3.5,0-7.2-1.9-7.2-7.4v-2c0-4.6,2.7-7.6,7.2-7.6c4.7,0,7.1,3.2,7.1,7.6v1.7
		C131.1,21.1,130.8,21.4,130.4,21.4 M126.5,18.4c0-2.1-1-3.2-2.6-3.2s-2.7,1.1-2.7,3.2v0.1L126.5,18.4L126.5,18.4z"/>
</g>
</svg>
